<?xml version="1.0" encoding="UTF-8" standalone="no"?>
<!DOCTYPE svg PUBLIC "-//W3C//DTD SVG 1.1//EN" "http://www.w3.org/Graphics/SVG/1.1/DTD/svg11.dtd">
<!-- 由 Microsoft Visio, SVG Export 生成 绘制图形.svg Page-1 -->
<svg xmlns="http://www.w3.org/2000/svg" xmlns:xlink="http://www.w3.org/1999/xlink" xmlns:ev="http://www.w3.org/2001/xml-events"
		xmlns:v="http://schemas.microsoft.com/visio/2003/SVGExtensions/" width="11.6929in" height="8.26772in"
		viewBox="0 0 841.89 595.276" xml:space="preserve" color-interpolation-filters="sRGB" class="st2">
	<v:documentProperties v:langID="2052" v:metric="true" v:viewMarkup="false">
		<v:userDefs>
			<v:ud v:nameU="msvNoAutoConnect" v:val="VT0(1):26"/>
		</v:userDefs>
	</v:documentProperties>

	<style type="text/css">
	<![CDATA[
		.st1 {fill:#ffffff;stroke:#000000;stroke-linecap:round;stroke-linejoin:round;stroke-width:0.75}
		.st2 {fill:none;fill-rule:evenodd;font-size:12px;overflow:visible;stroke-linecap:square;stroke-miterlimit:3}
	]]>
	</style>

	<g v:mID="0" v:index="1" v:groupContext="foregroundPage">
		<title>页-1</title>
		<v:pageProperties v:drawingScale="0.0393701" v:pageScale="0.0393701" v:drawingUnits="24" v:shadowOffsetX="8.50394"
				v:shadowOffsetY="-8.50394"/>
		<g id="shape1-1" v:mID="1" v:groupContext="shape" transform="translate(-10.8262,23.2779) rotate(-44.5)">
			<title>工作表.1</title>
			<rect x="0" y="313.371" width="284.683" height="281.904" class="st1"/>
		</g>
		<g id="shape2-3" v:mID="2" v:groupContext="shape" transform="translate(395.87,-515.831) rotate(-0.5)">
			<title>工作表.2</title>
			<ellipse cx="8.50394" cy="586.772" rx="8.50394" ry="8.50394" class="st1"/>
		</g>
		<g id="shape3-5" v:mID="3" v:groupContext="shape" transform="translate(421.346,-490.795) rotate(-0.5)">
			<title>工作表.3</title>
			<ellipse cx="8.50394" cy="586.772" rx="8.50394" ry="8.50394" class="st1"/>
		</g>
		<g id="shape4-7" v:mID="4" v:groupContext="shape" transform="translate(446.822,-465.76) rotate(-0.5)">
			<title>工作表.4</title>
			<ellipse cx="8.50394" cy="586.772" rx="8.50394" ry="8.50394" class="st1"/>
		</g>
		<g id="shape5-9" v:mID="5" v:groupContext="shape" transform="translate(472.298,-440.725) rotate(-0.5)">
			<title>工作表.5</title>
			<ellipse cx="8.50394" cy="586.772" rx="8.50394" ry="8.50394" class="st1"/>
		</g>
		<g id="shape6-11" v:mID="6" v:groupContext="shape" transform="translate(497.775,-415.689) rotate(-0.5)">
			<title>工作表.6</title>
			<ellipse cx="8.50394" cy="586.772" rx="8.50394" ry="8.50394" class="st1"/>
		</g>
		<g id="shape7-13" v:mID="7" v:groupContext="shape" transform="translate(523.251,-390.654) rotate(-0.5)">
			<title>工作表.7</title>
			<ellipse cx="8.50394" cy="586.772" rx="8.50394" ry="8.50394" class="st1"/>
		</g>
		<g id="shape8-15" v:mID="8" v:groupContext="shape" transform="translate(548.727,-365.619) rotate(-0.5)">
			<title>工作表.8</title>
			<ellipse cx="8.50394" cy="586.772" rx="8.50394" ry="8.50394" class="st1"/>
		</g>
		<g id="shape9-17" v:mID="9" v:groupContext="shape" transform="translate(574.203,-340.583) rotate(-0.5)">
			<title>工作表.9</title>
			<ellipse cx="8.50394" cy="586.772" rx="8.50394" ry="8.50394" class="st1"/>
		</g>
		<g id="shape10-19" v:mID="10" v:groupContext="shape" transform="translate(370.835,-490.355) rotate(-0.5)">
			<title>工作表.10</title>
			<ellipse cx="8.50394" cy="586.772" rx="8.50394" ry="8.50394" class="st1"/>
		</g>
		<g id="shape11-21" v:mID="11" v:groupContext="shape" transform="translate(370.835,-490.355) rotate(-0.5)">
			<title>工作表.11</title>
			<ellipse cx="8.50394" cy="586.772" rx="8.50394" ry="8.50394" class="st1"/>
		</g>
		<g id="shape12-23" v:mID="12" v:groupContext="shape" transform="translate(396.311,-465.319) rotate(-0.5)">
			<title>工作表.12</title>
			<ellipse cx="8.50394" cy="586.772" rx="8.50394" ry="8.50394" class="st1"/>
		</g>
		<g id="shape13-25" v:mID="13" v:groupContext="shape" transform="translate(421.787,-440.284) rotate(-0.5)">
			<title>工作表.13</title>
			<ellipse cx="8.50394" cy="586.772" rx="8.50394" ry="8.50394" class="st1"/>
		</g>
		<g id="shape14-27" v:mID="14" v:groupContext="shape" transform="translate(447.263,-415.249) rotate(-0.5)">
			<title>工作表.14</title>
			<ellipse cx="8.50394" cy="586.772" rx="8.50394" ry="8.50394" class="st1"/>
		</g>
		<g id="shape15-29" v:mID="15" v:groupContext="shape" transform="translate(472.739,-390.213) rotate(-0.5)">
			<title>工作表.15</title>
			<ellipse cx="8.50394" cy="586.772" rx="8.50394" ry="8.50394" class="st1"/>
		</g>
		<g id="shape16-31" v:mID="16" v:groupContext="shape" transform="translate(498.215,-365.178) rotate(-0.5)">
			<title>工作表.16</title>
			<ellipse cx="8.50394" cy="586.772" rx="8.50394" ry="8.50394" class="st1"/>
		</g>
		<g id="shape17-33" v:mID="17" v:groupContext="shape" transform="translate(523.692,-340.143) rotate(-0.5)">
			<title>工作表.17</title>
			<ellipse cx="8.50394" cy="586.772" rx="8.50394" ry="8.50394" class="st1"/>
		</g>
		<g id="shape18-35" v:mID="18" v:groupContext="shape" transform="translate(549.168,-315.107) rotate(-0.5)">
			<title>工作表.18</title>
			<ellipse cx="8.50394" cy="586.772" rx="8.50394" ry="8.50394" class="st1"/>
		</g>
		<g id="shape19-37" v:mID="19" v:groupContext="shape" transform="translate(345.039,-464.362) rotate(-0.5)">
			<title>工作表.19</title>
			<ellipse cx="8.50394" cy="586.772" rx="8.50394" ry="8.50394" class="st1"/>
		</g>
		<g id="shape20-39" v:mID="20" v:groupContext="shape" transform="translate(370.515,-439.326) rotate(-0.5)">
			<title>工作表.20</title>
			<ellipse cx="8.50394" cy="586.772" rx="8.50394" ry="8.50394" class="st1"/>
		</g>
		<g id="shape21-41" v:mID="21" v:groupContext="shape" transform="translate(395.991,-414.291) rotate(-0.5)">
			<title>工作表.21</title>
			<ellipse cx="8.50394" cy="586.772" rx="8.50394" ry="8.50394" class="st1"/>
		</g>
		<g id="shape22-43" v:mID="22" v:groupContext="shape" transform="translate(421.467,-389.256) rotate(-0.5)">
			<title>工作表.22</title>
			<ellipse cx="8.50394" cy="586.772" rx="8.50394" ry="8.50394" class="st1"/>
		</g>
		<g id="shape23-45" v:mID="23" v:groupContext="shape" transform="translate(446.943,-364.22) rotate(-0.5)">
			<title>工作表.23</title>
			<ellipse cx="8.50394" cy="586.772" rx="8.50394" ry="8.50394" class="st1"/>
		</g>
		<g id="shape24-47" v:mID="24" v:groupContext="shape" transform="translate(472.419,-339.185) rotate(-0.5)">
			<title>工作表.24</title>
			<ellipse cx="8.50394" cy="586.772" rx="8.50394" ry="8.50394" class="st1"/>
		</g>
		<g id="shape25-49" v:mID="25" v:groupContext="shape" transform="translate(497.895,-314.15) rotate(-0.5)">
			<title>工作表.25</title>
			<ellipse cx="8.50394" cy="586.772" rx="8.50394" ry="8.50394" class="st1"/>
		</g>
		<g id="shape26-51" v:mID="26" v:groupContext="shape" transform="translate(523.371,-289.114) rotate(-0.5)">
			<title>工作表.26</title>
			<ellipse cx="8.50394" cy="586.772" rx="8.50394" ry="8.50394" class="st1"/>
		</g>
		<g id="shape27-53" v:mID="27" v:groupContext="shape" transform="translate(320.003,-438.885) rotate(-0.5)">
			<title>工作表.27</title>
			<ellipse cx="8.50394" cy="586.772" rx="8.50394" ry="8.50394" class="st1"/>
		</g>
		<g id="shape28-55" v:mID="28" v:groupContext="shape" transform="translate(320.003,-438.885) rotate(-0.5)">
			<title>工作表.28</title>
			<ellipse cx="8.50394" cy="586.772" rx="8.50394" ry="8.50394" class="st1"/>
		</g>
		<g id="shape29-57" v:mID="29" v:groupContext="shape" transform="translate(345.479,-413.85) rotate(-0.5)">
			<title>工作表.29</title>
			<ellipse cx="8.50394" cy="586.772" rx="8.50394" ry="8.50394" class="st1"/>
		</g>
		<g id="shape30-59" v:mID="30" v:groupContext="shape" transform="translate(370.955,-388.815) rotate(-0.5)">
			<title>工作表.30</title>
			<ellipse cx="8.50394" cy="586.772" rx="8.50394" ry="8.50394" class="st1"/>
		</g>
		<g id="shape31-61" v:mID="31" v:groupContext="shape" transform="translate(396.432,-363.779) rotate(-0.5)">
			<title>工作表.31</title>
			<ellipse cx="8.50394" cy="586.772" rx="8.50394" ry="8.50394" class="st1"/>
		</g>
		<g id="shape32-63" v:mID="32" v:groupContext="shape" transform="translate(421.908,-338.744) rotate(-0.5)">
			<title>工作表.32</title>
			<ellipse cx="8.50394" cy="586.772" rx="8.50394" ry="8.50394" class="st1"/>
		</g>
		<g id="shape33-65" v:mID="33" v:groupContext="shape" transform="translate(447.384,-313.709) rotate(-0.5)">
			<title>工作表.33</title>
			<ellipse cx="8.50394" cy="586.772" rx="8.50394" ry="8.50394" class="st1"/>
		</g>
		<g id="shape34-67" v:mID="34" v:groupContext="shape" transform="translate(472.86,-288.673) rotate(-0.5)">
			<title>工作表.34</title>
			<ellipse cx="8.50394" cy="586.772" rx="8.50394" ry="8.50394" class="st1"/>
		</g>
		<g id="shape35-69" v:mID="35" v:groupContext="shape" transform="translate(498.336,-263.638) rotate(-0.5)">
			<title>工作表.35</title>
			<ellipse cx="8.50394" cy="586.772" rx="8.50394" ry="8.50394" class="st1"/>
		</g>
		<g id="shape121-71" v:mID="121" v:groupContext="shape" transform="translate(292.641,-413.672) rotate(-0.5)">
			<title>工作表.121</title>
			<ellipse cx="8.50394" cy="586.772" rx="8.50394" ry="8.50394" class="st1"/>
		</g>
		<g id="shape122-73" v:mID="122" v:groupContext="shape" transform="translate(318.117,-388.637) rotate(-0.5)">
			<title>工作表.122</title>
			<ellipse cx="8.50394" cy="586.772" rx="8.50394" ry="8.50394" class="st1"/>
		</g>
		<g id="shape123-75" v:mID="123" v:groupContext="shape" transform="translate(343.593,-363.602) rotate(-0.5)">
			<title>工作表.123</title>
			<ellipse cx="8.50394" cy="586.772" rx="8.50394" ry="8.50394" class="st1"/>
		</g>
		<g id="shape124-77" v:mID="124" v:groupContext="shape" transform="translate(369.069,-338.566) rotate(-0.5)">
			<title>工作表.124</title>
			<ellipse cx="8.50394" cy="586.772" rx="8.50394" ry="8.50394" class="st1"/>
		</g>
		<g id="shape125-79" v:mID="125" v:groupContext="shape" transform="translate(394.546,-313.531) rotate(-0.5)">
			<title>工作表.125</title>
			<ellipse cx="8.50394" cy="586.772" rx="8.50394" ry="8.50394" class="st1"/>
		</g>
		<g id="shape126-81" v:mID="126" v:groupContext="shape" transform="translate(420.022,-288.496) rotate(-0.5)">
			<title>工作表.126</title>
			<ellipse cx="8.50394" cy="586.772" rx="8.50394" ry="8.50394" class="st1"/>
		</g>
		<g id="shape127-83" v:mID="127" v:groupContext="shape" transform="translate(445.498,-263.46) rotate(-0.5)">
			<title>工作表.127</title>
			<ellipse cx="8.50394" cy="586.772" rx="8.50394" ry="8.50394" class="st1"/>
		</g>
		<g id="shape128-85" v:mID="128" v:groupContext="shape" transform="translate(470.974,-238.425) rotate(-0.5)">
			<title>工作表.128</title>
			<ellipse cx="8.50394" cy="586.772" rx="8.50394" ry="8.50394" class="st1"/>
		</g>
		<g id="shape129-87" v:mID="129" v:groupContext="shape" transform="translate(267.606,-388.196) rotate(-0.5)">
			<title>工作表.129</title>
			<ellipse cx="8.50394" cy="586.772" rx="8.50394" ry="8.50394" class="st1"/>
		</g>
		<g id="shape130-89" v:mID="130" v:groupContext="shape" transform="translate(267.606,-388.196) rotate(-0.5)">
			<title>工作表.130</title>
			<ellipse cx="8.50394" cy="586.772" rx="8.50394" ry="8.50394" class="st1"/>
		</g>
		<g id="shape131-91" v:mID="131" v:groupContext="shape" transform="translate(293.082,-363.161) rotate(-0.5)">
			<title>工作表.131</title>
			<ellipse cx="8.50394" cy="586.772" rx="8.50394" ry="8.50394" class="st1"/>
		</g>
		<g id="shape132-93" v:mID="132" v:groupContext="shape" transform="translate(318.558,-338.126) rotate(-0.5)">
			<title>工作表.132</title>
			<ellipse cx="8.50394" cy="586.772" rx="8.50394" ry="8.50394" class="st1"/>
		</g>
		<g id="shape133-95" v:mID="133" v:groupContext="shape" transform="translate(344.034,-313.09) rotate(-0.5)">
			<title>工作表.133</title>
			<ellipse cx="8.50394" cy="586.772" rx="8.50394" ry="8.50394" class="st1"/>
		</g>
		<g id="shape134-97" v:mID="134" v:groupContext="shape" transform="translate(369.51,-288.055) rotate(-0.5)">
			<title>工作表.134</title>
			<ellipse cx="8.50394" cy="586.772" rx="8.50394" ry="8.50394" class="st1"/>
		</g>
		<g id="shape135-99" v:mID="135" v:groupContext="shape" transform="translate(394.986,-263.02) rotate(-0.5)">
			<title>工作表.135</title>
			<ellipse cx="8.50394" cy="586.772" rx="8.50394" ry="8.50394" class="st1"/>
		</g>
		<g id="shape136-101" v:mID="136" v:groupContext="shape" transform="translate(420.463,-237.984) rotate(-0.5)">
			<title>工作表.136</title>
			<ellipse cx="8.50394" cy="586.772" rx="8.50394" ry="8.50394" class="st1"/>
		</g>
		<g id="shape137-103" v:mID="137" v:groupContext="shape" transform="translate(445.939,-212.949) rotate(-0.5)">
			<title>工作表.137</title>
			<ellipse cx="8.50394" cy="586.772" rx="8.50394" ry="8.50394" class="st1"/>
		</g>
		<g id="shape138-105" v:mID="138" v:groupContext="shape" transform="translate(240.233,-364.231) rotate(-0.5)">
			<title>工作表.138</title>
			<ellipse cx="8.50394" cy="586.772" rx="8.50394" ry="8.50394" class="st1"/>
		</g>
		<g id="shape139-107" v:mID="139" v:groupContext="shape" transform="translate(265.709,-339.195) rotate(-0.5)">
			<title>工作表.139</title>
			<ellipse cx="8.50394" cy="586.772" rx="8.50394" ry="8.50394" class="st1"/>
		</g>
		<g id="shape140-109" v:mID="140" v:groupContext="shape" transform="translate(291.185,-314.16) rotate(-0.5)">
			<title>工作表.140</title>
			<ellipse cx="8.50394" cy="586.772" rx="8.50394" ry="8.50394" class="st1"/>
		</g>
		<g id="shape141-111" v:mID="141" v:groupContext="shape" transform="translate(316.661,-289.125) rotate(-0.5)">
			<title>工作表.141</title>
			<ellipse cx="8.50394" cy="586.772" rx="8.50394" ry="8.50394" class="st1"/>
		</g>
		<g id="shape142-113" v:mID="142" v:groupContext="shape" transform="translate(342.137,-264.089) rotate(-0.5)">
			<title>工作表.142</title>
			<ellipse cx="8.50394" cy="586.772" rx="8.50394" ry="8.50394" class="st1"/>
		</g>
		<g id="shape143-115" v:mID="143" v:groupContext="shape" transform="translate(367.613,-239.054) rotate(-0.5)">
			<title>工作表.143</title>
			<ellipse cx="8.50394" cy="586.772" rx="8.50394" ry="8.50394" class="st1"/>
		</g>
		<g id="shape144-117" v:mID="144" v:groupContext="shape" transform="translate(393.09,-214.019) rotate(-0.5)">
			<title>工作表.144</title>
			<ellipse cx="8.50394" cy="586.772" rx="8.50394" ry="8.50394" class="st1"/>
		</g>
		<g id="shape145-119" v:mID="145" v:groupContext="shape" transform="translate(418.566,-188.983) rotate(-0.5)">
			<title>工作表.145</title>
			<ellipse cx="8.50394" cy="586.772" rx="8.50394" ry="8.50394" class="st1"/>
		</g>
		<g id="shape146-121" v:mID="146" v:groupContext="shape" transform="translate(215.197,-338.754) rotate(-0.5)">
			<title>工作表.146</title>
			<ellipse cx="8.50394" cy="586.772" rx="8.50394" ry="8.50394" class="st1"/>
		</g>
		<g id="shape147-123" v:mID="147" v:groupContext="shape" transform="translate(215.197,-338.754) rotate(-0.5)">
			<title>工作表.147</title>
			<ellipse cx="8.50394" cy="586.772" rx="8.50394" ry="8.50394" class="st1"/>
		</g>
		<g id="shape148-125" v:mID="148" v:groupContext="shape" transform="translate(240.674,-313.719) rotate(-0.5)">
			<title>工作表.148</title>
			<ellipse cx="8.50394" cy="586.772" rx="8.50394" ry="8.50394" class="st1"/>
		</g>
		<g id="shape149-127" v:mID="149" v:groupContext="shape" transform="translate(266.15,-288.684) rotate(-0.5)">
			<title>工作表.149</title>
			<ellipse cx="8.50394" cy="586.772" rx="8.50394" ry="8.50394" class="st1"/>
		</g>
		<g id="shape150-129" v:mID="150" v:groupContext="shape" transform="translate(291.626,-263.648) rotate(-0.5)">
			<title>工作表.150</title>
			<ellipse cx="8.50394" cy="586.772" rx="8.50394" ry="8.50394" class="st1"/>
		</g>
		<g id="shape151-131" v:mID="151" v:groupContext="shape" transform="translate(317.102,-238.613) rotate(-0.5)">
			<title>工作表.151</title>
			<ellipse cx="8.50394" cy="586.772" rx="8.50394" ry="8.50394" class="st1"/>
		</g>
		<g id="shape152-133" v:mID="152" v:groupContext="shape" transform="translate(342.578,-213.578) rotate(-0.5)">
			<title>工作表.152</title>
			<ellipse cx="8.50394" cy="586.772" rx="8.50394" ry="8.50394" class="st1"/>
		</g>
		<g id="shape153-135" v:mID="153" v:groupContext="shape" transform="translate(368.054,-188.542) rotate(-0.5)">
			<title>工作表.153</title>
			<ellipse cx="8.50394" cy="586.772" rx="8.50394" ry="8.50394" class="st1"/>
		</g>
		<g id="shape154-137" v:mID="154" v:groupContext="shape" transform="translate(393.53,-163.507) rotate(-0.5)">
			<title>工作表.154</title>
			<ellipse cx="8.50394" cy="586.772" rx="8.50394" ry="8.50394" class="st1"/>
		</g>
	</g>
</svg>
